<svg width="256" height="256" viewBox="0 0 64 64" fill="none" xmlns="http://www.w3.org/2000/svg">
  <defs>
    <linearGradient id="bgGradient" x1="8" y1="8" x2="56" y2="56" gradientUnits="userSpaceOnUse">
      <stop offset="0" stop-color="#151016" />
      <stop offset="1" stop-color="#1F1B21" />
    </linearGradient>
    <linearGradient id="ringGradient" x1="12" y1="12" x2="52" y2="52" gradientUnits="userSpaceOnUse">
      <stop offset="0" stop-color="#F6E7C2" />
      <stop offset="0.45" stop-color="#D8B156" />
      <stop offset="1" stop-color="#9A6A2B" />
    </linearGradient>
    <linearGradient id="goldGradient" x1="18" y1="20" x2="50" y2="44" gradientUnits="userSpaceOnUse">
      <stop offset="0" stop-color="#F7E7C1" />
      <stop offset="0.35" stop-color="#E7C979" />
      <stop offset="0.7" stop-color="#C7923F" />
      <stop offset="1" stop-color="#9B6B2B" />
    </linearGradient>
    <filter id="glow" x="6" y="6" width="52" height="52" filterUnits="userSpaceOnUse" color-interpolation-filters="sRGB">
      <feGaussianBlur stdDeviation="2" result="blur" />
      <feBlend in="SourceGraphic" in2="blur" mode="screen" />
    </filter>
  </defs>

  <rect x="2" y="2" width="60" height="60" rx="18" fill="url(#bgGradient)" />
  <rect x="3" y="3" width="58" height="58" rx="16" stroke="url(#ringGradient)" stroke-width="2" />

  <g filter="url(#glow)">
    <path d="M22 18H28V42H40V46H22V18Z" fill="url(#goldGradient)" />
    <path d="M46 18H38C32.477 18 28 22.477 28 32C28 41.523 32.477 46 38 46H46C50.418 46 54 43.314 54 38.5V32H42V36H48V38C48 39.657 47.105 40.5 45.5 40.5H38C34.686 40.5 32.5 37.671 32.5 32C32.5 26.329 34.686 23.5 38 23.5H46C47.657 23.5 48.5 24.395 48.5 26H53.5C53.5 21.029 50.002 18 46 18Z" fill="url(#goldGradient)" />
  </g>

  <circle cx="46" cy="20" r="3" fill="#F9EBCF" opacity="0.4" />
</svg>
